<?xml version="1.0" encoding="utf-8"?>
<!-- Generator: Adobe Illustrator 19.1.0, SVG Export Plug-In . SVG Version: 6.00 Build 0)  -->
<svg version="1.1" id="combined_logo" xmlns="http://www.w3.org/2000/svg" xmlns:xlink="http://www.w3.org/1999/xlink" x="0px"
	 y="0px" viewBox="261 -45 560 110" style="enable-background:new 261 -45 560 110;" xml:space="preserve">
<style type="text/css">
	.st0{fill:#FFFFFF;}
</style>
<path id="a_1_" class="st0" d="M807.9,37.5c-0.2,1.2,0.4,1.5,0.9,1.5h2.9c1,0,1.3-1,1.3-1.5l0,0l7.9-45c-5.7-2.1-12.3-3.2-16.8-3.2
	c-13.1,0-18.4,5.2-20.7,18l-3.7,20.9c-0.2,1.3-0.3,2.5-0.3,3.6c0,6,3.4,8.2,9.6,8.2c7,0,14-3.3,19.6-8.1L807.9,37.5z M789.6,35
	c-3,0-4.5-0.8-4.5-3.9c0-0.8,0.1-1.7,0.3-2.9l3.5-19.9c1.9-10.7,5.4-14,14.5-14c4,0,8.7,0.8,11.4,1.6l-5.2,29.5
	C803.3,31,795.7,35,789.6,35z"/>
<path id="t" class="st0" d="M777.6-5.6L777.6-5.6l0.7-3.2c0.2-0.9-0.2-0.8-0.7-0.8h-13.7l1.9-11.2l0,0c0.2-1.2-0.6-1.4-1.2-1.3l0,0
	l-3.1,0.4l0,0c-0.9,0.1-1.3,0.9-1.3,1.3l0,0l-1.9,10.7h-8.5c-0.2,0-0.9,0.1-1.1,0.8l-0.5,3.1l0,0c0,0.3,0,0.9,0.8,0.9h8.3l-6.4,36.4
	c-0.1,0.7-0.2,1.3-0.2,1.9c0,4.4,3.1,6.5,8,6.5c3.8,0,10.7-1.1,14.1-2.8c1-0.6,0.9-1.3,0.7-1.8l0,0l-0.7-2c-0.2-0.4-0.7-0.4-1.1-0.3
	l0,0c-3.3,1.3-5.2,2-12,2c-2.3,0-3.3-0.5-3.3-2.4c0-0.5,0.1-1.1,0.2-1.8L762.9-5h13.6C777.2-4.9,777.5-5.2,777.6-5.6z"/>
<path id="a" class="st0" d="M728.1,37.5c-0.2,1.2,0.4,1.5,0.9,1.5h2.9c1,0,1.3-1,1.3-1.5l0,0l7.9-45c-5.7-2.1-12.3-3.2-16.8-3.2
	c-13.1,0-18.4,5.2-20.7,18l-3.7,20.9c-0.2,1.3-0.3,2.5-0.3,3.6c0,6,3.4,8.2,9.6,8.2c7,0,14-3.3,19.6-8.1L728.1,37.5z M709.9,35
	c-3,0-4.5-0.8-4.5-3.9c0-0.8,0.1-1.7,0.3-2.9l3.5-19.9c1.9-10.7,5.4-14,14.5-14c4,0,8.7,0.8,11.4,1.6l-5.2,29.5
	C723.6,31,716,35,709.9,35z"/>
<path id="d" class="st0" d="M678.8,37.5c-0.2,1.2,0.4,1.5,0.9,1.5h2.9c1,0,1.3-1,1.3-1.5l11.7-66.3c0.2-1.2-0.6-1.4-1.2-1.3l0,0
	l-3.1,0.4c-0.9,0.1-1.3,0.9-1.3,1.3l0,0L686.6-9c-3-0.9-8.6-1.6-11.8-1.6c-12.4,0-18.4,4.8-20.7,18l-3.7,20.9
	c-0.2,1.3-0.3,2.5-0.3,3.6c0,6,3.4,8.2,9.6,8.2c7,0,14.3-3.3,19.9-8.1L678.8,37.5z M660.2,35c-3,0-4.5-0.8-4.5-3.9
	c0-0.8,0.1-1.7,0.3-2.9l3.5-19.9c1.9-10.8,5.6-14,14.5-14c3.9,0,7.8,0.6,11.7,1.6l-5.2,29.5C674.2,31,666.4,35,660.2,35z"/>
<path id="x" class="st0" d="M646.4-9.6h-14c-0.6,0-1.4,0.5-1.6,0.9l-9.9,14.4l-5.8-15c-0.3-0.8-1.1-1.1-1.7-1l-12.2,1.8l10.5,23.1
	L592.4,39h13.1c0.9,0,2.1-0.4,2.8-1.2l9.1-10.9l5.1,10.9c0.3,0.6,1.1,1.2,1.9,1.2h12.8l-10.3-22.6L646.4-9.6z"/>
<path id="u" class="st0" d="M586.3,38.1l8.3-47.6c0.2-1-0.6-1-1.2-0.9l-11.7,1.6c-1.3,0.2-1.6,1.1-1.7,1.6l0,0l-5.1,28.9
	c-3.6,1.8-10,4.6-12.6,4.6c-1.4,0-1.9-0.5-1.9-1.5c0-0.4,0.1-1,0.2-1.5l5.7-32.8l0,0c0.2-1-0.6-1-1.1-0.9l-11.6,1.6l0,0
	c-1.3,0.2-1.6,1.1-1.7,1.6l0,0l-5.6,31.7c-0.3,2-0.5,3.6-0.5,5.6c0,6.1,2.5,9.9,8.9,9.9c5.6,0,11.6-1.9,19.2-5.5l0.1,3.6
	c0,0.3,0.1,0.9,0.6,0.9h10.8C586,39,586.3,38.5,586.3,38.1z"/>
<path id="fl" class="st0" d="M534.8,36.8l11.8-67.2c0.2-1-0.4-1-0.9-0.9l-13.5,2.2c-6.1-1.7-13-2.4-17-2.4
	c-12.5,0-16.7,4.3-18.7,15.5l-1.1,6.4H490c-1.5,0-1.6,0.7-1.7,1.3l0,0l-1.6,9.4c-0.1,0.4,0.1,0.8,0.7,0.8h6.1L486.9,39
	c-0.8,4.4-1.4,7-5.6,11.4l0,0c-0.8,0.8-0.6,1.1,0,1.6l0,0l7.4,6.9l0,0c0.8,0.7,1.1,0.5,1.9-0.3c6.8-6.9,9-11.5,10.1-18l6.8-38.7
	h10.8c0.6,0,0.8,0,1-0.8l0,0l2.6-9.8l0,0c0.2-0.7-0.5-0.9-1-0.9h-11.4l1.3-7.1c0.5-2.5,1.5-3.3,4.7-3.3c4.2,0,11,0.8,14.8,1.8
	l-9.6,55l0,0c-0.4,2-0.2,2.2,1.5,2.2h10.4C533.8,39,534.4,39,534.8,36.8z"/>
<path id="n" class="st0" d="M470.6-10.6c-5.6,0-11.6,1.9-19.2,5.5l0.1-4.3c0-1.1-0.8-0.9-1.4-0.8L441-8.7l0,0
	c-1.5,0.3-2,1.2-2.1,1.7l-7.7,43.9l0,0c-0.4,2-0.2,2.2,1.5,2.2h10.4c1.2,0,1.8,0,2.2-2.2l5.1-29.2c3.8-2,10-4.6,12.6-4.6
	c1.4,0,1.9,0.4,1.9,1.4c0,0.4-0.1,0.9-0.2,1.5l-5.4,30.9l0,0c-0.4,2-0.2,2.2,1.5,2.2h10.4c1.2,0,1.8,0,2.2-2.2l5.6-32
	c0.4-2.5,0.5-3.9,0.5-5.6C479.5-6.9,477.1-10.6,470.6-10.6z"/>
<path id="i" class="st0" d="M431.4-31.2l-2.3,12.6c-0.3,1.6-0.6,1.6-1.7,1.8l-11.5,1.6c-1.3,0.2-1.4,0.2-1.2-1.3l2.1-12.2
	c0.1-0.4,0.4-1.3,1.7-1.5l11.7-1.6C431.3-32,431.5-31.9,431.4-31.2z M426.3-10.4l-11.7,1.6c-1.3,0.2-1.6,1.1-1.7,1.6l0,0l-7.8,44.3
	c-0.3,1.7-0.1,1.9,1.5,1.9H417c1.2,0,1.8,0,2.2-2.2l0,0l8.2-46.3C427.7-10.5,426.9-10.4,426.3-10.4z"/>
<path id="cuboctahedron" class="st0" d="M369.1,21.4l-10.5-45.7c-0.6-2.5-2.9-5-5.3-5.7l-47.9-14.7c-0.6-0.2-1.3-0.3-2-0.3
	c-2.1,0-4.2,0.8-5.6,2l-34.4,31.9c-1.8,1.7-2.9,5-2.3,7.4l11.2,48.9c0.6,2.5,2.9,5,5.3,5.7l44.8,13.8c0.6,0.2,1.3,0.3,2,0.3
	c2.1,0,4.2-0.8,5.6-2l36.8-34.1C368.7,27.1,369.7,23.9,369.1,21.4z M310.3-33.8l32.8,10.1c1.3,0.4,1.3,1,0,1.3l-17.3,4
	c-1.3,0.3-3.1-0.3-4-1.2l-12.1-13C308.7-33.7,309-34.2,310.3-33.8z M330.8,25.2c0.3,1.3-0.5,2.1-1.8,1.7l-35.5-11
	c-1.3-0.4-1.5-1.5-0.5-2.4l27.2-25.2c1-0.9,2-0.6,2.3,0.7L330.8,25.2z M272.3-7.1l28.8-26.8c1-0.9,2.5-0.9,3.5,0.1l14.5,15.6
	c0.9,1,0.9,2.5-0.1,3.5l-28.9,26.8c-1,0.9-2.5,0.9-3.5-0.1L272.2-3.6C271.3-4.6,271.4-6.2,272.3-7.1z M279.3,35.5L271.7,2
	c-0.3-1.3,0.2-1.6,1.1-0.6l12.1,13c0.9,1,1.3,2.8,0.9,4.1l-5.2,17C280.2,36.8,279.6,36.8,279.3,35.5z M321.5,55l-37.6-11.6
	c-1.3-0.4-2-1.8-1.6-3.1l6.3-20.3c0.4-1.3,1.8-2,3.1-1.6L329.2,30c1.3,0.4,2,1.8,1.6,3.1l-6.3,20.3C324.2,54.7,322.8,55.4,321.5,55z
	 M354.9,27.7L329.7,51c-1,0.9-1.5,0.6-1.1-0.7l5.2-17c0.4-1.3,1.8-2.6,3.1-2.9l17.3-4C355.6,26.2,355.9,26.7,354.9,27.7z
	 M357.7,22.7L337,27.4c-1.3,0.3-2.6-0.5-2.9-1.8l-8.8-38.3c-0.3-1.3,0.5-2.6,1.8-2.9l20.7-4.7c1.3-0.3,2.6,0.5,2.9,1.8l8.8,38.3
	C359.8,21.1,359,22.4,357.7,22.7z"/>
</svg>
